<svg xmlns="http://www.w3.org/2000/svg">

    <symbol id="logo" viewBox="0 0 112 43" fill="none">
        <rect x="3.67383" y="4.97827" width="42.2674" height="37.3367" rx="6.96951" fill="#6C5FBC"/>
        <rect x="1.0075" y="1.0075" width="40.2524" height="35.3217" rx="5.96201" fill="#DBD9EE" stroke="#6C5FBC" stroke-width="2.01499"/>
        <path d="M32.624 12.051L9.72243 11.9498" stroke="#6C5FBC" stroke-width="2.08432" stroke-linecap="round" stroke-linejoin="round"/>
        <path d="M32.6096 16.6363L27.5162 16.6138C25.4095 16.6044 23.7056 14.5424 23.7133 12.0114C23.7211 9.48047 25.4376 7.4335 27.5443 7.44281L32.6377 7.46533" stroke="#6C5FBC" stroke-width="2.08432" stroke-linecap="round" stroke-linejoin="round"/>
        <path d="M17.3611 26.7221L10.7067 26.648C10.1614 26.6456 9.70458 26.1076 9.6942 25.4525L9.64992 23.7254C9.63962 23.0405 10.0999 22.462 10.6699 22.4645L17.25 22.5383L17.3611 26.7221Z" stroke="#6C5FBC" stroke-width="2.08432" stroke-linecap="round" stroke-linejoin="round"/>
        <path d="M27.8134 29.2104L18.4076 29.0943C17.8624 29.0919 17.4055 28.5539 17.3951 27.8988L17.2752 22.5237L32.555 22.7103L32.5653 23.3952C32.6421 26.6412 30.5025 29.252 27.8134 29.2104Z" stroke="#6C5FBC" stroke-width="2.08432" stroke-linecap="round" stroke-linejoin="round"/>
        <path d="M69.3081 21.6456C69.3081 22.0691 69.2798 22.4503 69.2234 22.7891H60.6472C60.7178 23.6361 61.0142 24.2996 61.5366 24.7796C62.0589 25.2596 62.7012 25.4996 63.4635 25.4996C64.5647 25.4996 65.3482 25.0266 65.8141 24.0808H69.0116C68.6728 25.2102 68.0234 26.1419 67.0634 26.876C66.1035 27.596 64.9247 27.956 63.5271 27.956C62.3977 27.956 61.3813 27.7089 60.4778 27.2148C59.5884 26.7066 58.8896 25.9937 58.3814 25.0761C57.8873 24.1584 57.6402 23.0996 57.6402 21.8997C57.6402 20.6856 57.8873 19.6198 58.3814 18.7021C58.8755 17.7845 59.5672 17.0787 60.4566 16.5846C61.346 16.0905 62.3695 15.8434 63.5271 15.8434C64.6423 15.8434 65.6376 16.0834 66.5129 16.5634C67.4022 17.0434 68.0869 17.7281 68.5669 18.6174C69.061 19.4927 69.3081 20.5021 69.3081 21.6456ZM66.2376 20.7985C66.2235 20.0362 65.9482 19.4292 65.4117 18.9774C64.8753 18.5116 64.2188 18.2786 63.4424 18.2786C62.7083 18.2786 62.0871 18.5045 61.5789 18.9563C61.0848 19.3939 60.7813 20.008 60.6683 20.7985H66.2376ZM70.7096 21.8573C70.7096 20.6715 70.9426 19.6198 71.4084 18.7021C71.8884 17.7845 72.5308 17.0787 73.3354 16.5846C74.1542 16.0905 75.0648 15.8434 76.0671 15.8434C76.9424 15.8434 77.7047 16.0199 78.3541 16.3728C79.0176 16.7257 79.547 17.1704 79.9423 17.7069V16.034H82.9281V27.7654H79.9423V26.0501C79.5611 26.6007 79.0317 27.0595 78.3541 27.4266C77.6906 27.7795 76.9212 27.956 76.0459 27.956C75.0577 27.956 74.1542 27.7019 73.3354 27.1936C72.5308 26.6854 71.8884 25.9725 71.4084 25.0549C70.9426 24.1231 70.7096 23.0573 70.7096 21.8573ZM79.9423 21.8997C79.9423 21.1797 79.8011 20.5656 79.5188 20.0574C79.2364 19.5351 78.8553 19.1398 78.3753 18.8715C77.8953 18.5892 77.38 18.448 76.8294 18.448C76.2789 18.448 75.7707 18.5821 75.3048 18.8504C74.8389 19.1186 74.4578 19.5139 74.1613 20.0362C73.8789 20.5444 73.7378 21.1515 73.7378 21.8573C73.7378 22.5632 73.8789 23.1844 74.1613 23.7208C74.4578 24.2431 74.8389 24.6455 75.3048 24.9278C75.7848 25.2102 76.293 25.3513 76.8294 25.3513C77.38 25.3513 77.8953 25.2172 78.3753 24.949C78.8553 24.6667 79.2364 24.2714 79.5188 23.7632C79.8011 23.2408 79.9423 22.6197 79.9423 21.8997ZM89.2752 18.4692V24.1443C89.2752 24.5396 89.3669 24.829 89.5505 25.0125C89.7481 25.1819 90.0728 25.2666 90.5246 25.2666H91.901V27.7654H90.0375C87.5388 27.7654 86.2894 26.5513 86.2894 24.1231V18.4692H84.8918V16.034H86.2894V13.1329H89.2752V16.034H91.901V18.4692H89.2752ZM96.9979 12.0953V27.7654H94.0333V12.0953H96.9979ZM111.15 16.034L103.887 33.3134H100.732L103.273 27.4689L98.5717 16.034H101.896L104.924 24.229L107.995 16.034H111.15Z" fill="#6C5FBC"/>
    </symbol>

    <symbol id="trustpilot" viewBox="0 0 99 25" fill="none">
        <path d="M25.8846 9.22852H35.8476V11.0833H31.9248V21.5387H29.7746V11.0833H25.8682L25.8846 9.22852ZM35.4209 12.6261H37.2592V14.3496H37.292C37.3577 14.1034 37.4726 13.8736 37.6367 13.6438C37.8009 13.414 37.9978 13.2006 38.244 13.0201C38.4738 12.8231 38.7364 12.6754 39.0319 12.5605C39.3109 12.4456 39.6064 12.3799 39.9018 12.3799C40.1316 12.3799 40.2957 12.3963 40.3778 12.3963C40.4599 12.4128 40.5583 12.4292 40.6404 12.4292V14.3167C40.5091 14.2839 40.3614 14.2675 40.2137 14.2511C40.0659 14.2347 39.9346 14.2183 39.7869 14.2183C39.4586 14.2183 39.1468 14.2839 38.8513 14.4152C38.5559 14.5465 38.3097 14.7435 38.0799 14.9897C37.8665 15.2523 37.686 15.5642 37.5547 15.9417C37.4233 16.3192 37.3577 16.7624 37.3577 17.2548V21.4895H35.3881L35.4209 12.6261ZM49.6679 21.5387H47.7311V20.2913H47.6983C47.4521 20.7509 47.091 21.0956 46.615 21.3746C46.139 21.6536 45.6466 21.7849 45.1542 21.7849C43.9888 21.7849 43.1353 21.5059 42.6101 20.915C42.0848 20.3405 41.8222 19.4542 41.8222 18.2888V12.6261H43.7918V18.0919C43.7918 18.8797 43.9396 19.4378 44.2514 19.7496C44.5469 20.0779 44.9736 20.242 45.5153 20.242C45.9256 20.242 46.2703 20.1764 46.5493 20.0451C46.8284 19.9138 47.0581 19.7496 47.2223 19.5363C47.4028 19.3229 47.5177 19.0603 47.5998 18.7648C47.6819 18.4694 47.7147 18.1411 47.7147 17.7964V12.6261H49.6843V21.5387H49.6679ZM53.0163 18.6828C53.0819 19.2572 53.2953 19.6512 53.6728 19.8974C54.0503 20.1272 54.5099 20.242 55.0352 20.242C55.2157 20.242 55.4291 20.2256 55.6589 20.1928C55.8887 20.16 56.1185 20.1107 56.3154 20.0287C56.5288 19.9466 56.6929 19.8317 56.8242 19.6676C56.9556 19.5034 57.0212 19.3065 57.0048 19.0603C56.9884 18.8141 56.9063 18.6007 56.7258 18.4366C56.5452 18.2724 56.3318 18.1575 56.0692 18.0426C55.8066 17.9441 55.4947 17.8621 55.15 17.7964C54.8054 17.7308 54.4607 17.6487 54.0996 17.5666C53.7385 17.4846 53.3774 17.3861 53.0327 17.2712C52.688 17.1563 52.3926 17.0086 52.1135 16.7952C51.8509 16.5982 51.6211 16.352 51.4734 16.0402C51.3093 15.7283 51.2272 15.3672 51.2272 14.9076C51.2272 14.4152 51.3421 14.0213 51.5883 13.693C51.8181 13.3647 52.1299 13.1021 52.491 12.9052C52.8521 12.7082 53.2625 12.5605 53.7057 12.4784C54.1488 12.3963 54.5756 12.3635 54.9695 12.3635C55.4291 12.3635 55.8722 12.4128 56.2826 12.5112C56.6929 12.6097 57.0869 12.7574 57.4151 12.9872C57.7598 13.2006 58.0388 13.4961 58.2522 13.8407C58.482 14.1854 58.6133 14.6122 58.679 15.1046H56.6273C56.5288 14.6286 56.3154 14.3167 55.9871 14.1526C55.6425 13.9885 55.2649 13.9064 54.8218 13.9064C54.6905 13.9064 54.5099 13.9228 54.3294 13.9392C54.1324 13.972 53.9683 14.0049 53.7877 14.0705C53.6236 14.1362 53.4759 14.2347 53.361 14.3496C53.2461 14.4645 53.1804 14.6286 53.1804 14.8256C53.1804 15.0718 53.2625 15.2523 53.4266 15.4C53.5908 15.5478 53.8041 15.6627 54.0832 15.7775C54.3458 15.876 54.6576 15.9581 55.0023 16.0238C55.347 16.0894 55.7081 16.1715 56.0692 16.2535C56.4303 16.3356 56.775 16.4341 57.1197 16.549C57.4644 16.6639 57.7762 16.8116 58.0388 17.025C58.3015 17.2219 58.5313 17.4682 58.6954 17.7636C58.8595 18.059 58.9416 18.4366 58.9416 18.8633C58.9416 19.3885 58.8267 19.8317 58.5805 20.2092C58.3343 20.5703 58.0224 20.8822 57.6449 21.112C57.2674 21.3418 56.8242 21.5059 56.3647 21.6208C55.8887 21.7193 55.4291 21.7849 54.9695 21.7849C54.4114 21.7849 53.8862 21.7193 53.4102 21.588C52.9342 21.4567 52.5075 21.2597 52.1628 21.0135C51.8181 20.7509 51.5391 20.439 51.3421 20.0451C51.1451 19.6676 51.0302 19.208 51.0138 18.6663H52.9999V18.6828H53.0163ZM59.4997 12.6261H60.9933V9.9343H62.9629V12.6097H64.7356V14.0705H62.9629V18.8305C62.9629 19.0439 62.9793 19.208 62.9958 19.3721C63.0122 19.5198 63.0614 19.6512 63.1107 19.7496C63.1763 19.8481 63.2748 19.9302 63.3897 19.9794C63.521 20.0287 63.6851 20.0615 63.9149 20.0615C64.0462 20.0615 64.194 20.0615 64.3253 20.0451C64.4566 20.0287 64.6043 20.0123 64.7356 19.9794V21.5059C64.5222 21.5387 64.3088 21.5551 64.0955 21.5716C63.8821 21.6044 63.6851 21.6044 63.4553 21.6044C62.9301 21.6044 62.5198 21.5551 62.2079 21.4567C61.896 21.3582 61.6498 21.2105 61.4693 21.0299C61.2887 20.8329 61.1738 20.6031 61.1082 20.3241C61.0425 20.0451 61.0097 19.7004 60.9933 19.3393V14.0869H59.4997V12.5933V12.6261ZM66.1143 12.6261H67.9691V13.8407H68.0019C68.2809 13.3155 68.6585 12.9544 69.1509 12.7246C69.6433 12.4948 70.1685 12.3799 70.7594 12.3799C71.4652 12.3799 72.0725 12.4948 72.5977 12.7574C73.123 13.0036 73.5497 13.3319 73.8944 13.7751C74.2391 14.2018 74.5017 14.7107 74.6658 15.2851C74.83 15.8596 74.9285 16.4833 74.9285 17.1235C74.9285 17.7308 74.8464 18.3052 74.6987 18.8633C74.5345 19.4214 74.3047 19.9302 73.9929 20.3569C73.681 20.7837 73.2871 21.1284 72.7947 21.391C72.3023 21.6536 71.7442 21.7849 71.0877 21.7849C70.8086 21.7849 70.5132 21.7521 70.2342 21.7029C69.9551 21.6536 69.6761 21.5716 69.4135 21.4567C69.1509 21.3418 68.9047 21.194 68.6913 21.0135C68.4615 20.8329 68.2809 20.6196 68.1332 20.3898H68.1004V24.8379H66.1308V12.6261H66.1143ZM72.9917 17.0906C72.9917 16.6967 72.9424 16.3028 72.8275 15.9253C72.729 15.5478 72.5649 15.2195 72.3515 14.924C72.1381 14.6286 71.8755 14.3988 71.5801 14.2183C71.2682 14.0377 70.9071 13.9556 70.5132 13.9556C69.6925 13.9556 69.0688 14.2347 68.642 14.8091C68.2317 15.3836 68.0183 16.1551 68.0183 17.1071C68.0183 17.5666 68.0676 17.977 68.1825 18.3545C68.2974 18.732 68.4451 19.0603 68.6749 19.3393C68.8882 19.6183 69.1509 19.8317 69.4627 19.9958C69.7746 20.16 70.1193 20.242 70.5296 20.242C70.9892 20.242 71.3503 20.1436 71.6621 19.963C71.974 19.7825 72.2202 19.5363 72.4336 19.2572C72.6306 18.9618 72.7783 18.6335 72.8603 18.256C72.9424 17.8621 72.9917 17.4846 72.9917 17.0906ZM76.4549 9.22852H78.4246V11.0833H76.4549V9.22852ZM76.4549 12.6261H78.4246V21.5387H76.4549V12.6261ZM80.1808 9.22852H82.1504V21.5387H80.1808V9.22852ZM88.1578 21.7849C87.452 21.7849 86.8119 21.67 86.2539 21.4238C85.6958 21.1776 85.2362 20.8658 84.8423 20.4554C84.4648 20.0451 84.1693 19.5363 83.9724 18.9618C83.7754 18.3873 83.6605 17.7472 83.6605 17.0742C83.6605 16.4013 83.759 15.7775 83.9724 15.2031C84.1693 14.6286 84.4648 14.1362 84.8423 13.7094C85.2198 13.2991 85.6958 12.9708 86.2539 12.741C86.8119 12.5112 87.452 12.3799 88.1578 12.3799C88.8636 12.3799 89.5037 12.4948 90.0618 12.741C90.6199 12.9708 91.0795 13.2991 91.4734 13.7094C91.8509 14.1198 92.1463 14.6286 92.3433 15.2031C92.5403 15.7775 92.6552 16.4013 92.6552 17.0742C92.6552 17.7636 92.5567 18.3873 92.3433 18.9618C92.1299 19.5363 91.8509 20.0287 91.4734 20.4554C91.0959 20.8658 90.6199 21.194 90.0618 21.4238C89.5037 21.6536 88.88 21.7849 88.1578 21.7849ZM88.1578 20.2256C88.5846 20.2256 88.9785 20.1272 89.2904 19.9466C89.6186 19.7661 89.8648 19.5199 90.0782 19.2244C90.2916 18.929 90.4393 18.5843 90.5378 18.2232C90.6363 17.8457 90.6855 17.4681 90.6855 17.0742C90.6855 16.6967 90.6363 16.3192 90.5378 15.9417C90.4393 15.5642 90.2916 15.2359 90.0782 14.9405C89.8648 14.645 89.6022 14.4152 89.2904 14.2347C88.9621 14.0541 88.5846 13.9556 88.1578 13.9556C87.7311 13.9556 87.3372 14.0541 87.0253 14.2347C86.697 14.4152 86.4508 14.6614 86.2374 14.9405C86.0241 15.2359 85.8763 15.5642 85.7779 15.9417C85.6794 16.3192 85.6301 16.6967 85.6301 17.0742C85.6301 17.4681 85.6794 17.8457 85.7779 18.2232C85.8763 18.6007 86.0241 18.929 86.2374 19.2244C86.4508 19.5199 86.7134 19.7661 87.0253 19.9466C87.3536 20.1436 87.7311 20.2256 88.1578 20.2256ZM93.246 12.6261H94.7397V9.9343H96.7093V12.6097H98.482V14.0705H96.7093V18.8305C96.7093 19.0439 96.7257 19.208 96.7422 19.3721C96.7586 19.5198 96.8078 19.6512 96.857 19.7496C96.9227 19.8481 97.0212 19.9302 97.1361 19.9794C97.2674 20.0287 97.4315 20.0615 97.6613 20.0615C97.7926 20.0615 97.9403 20.0615 98.0717 20.0451C98.203 20.0287 98.3507 20.0123 98.482 19.9794V21.5059C98.2686 21.5387 98.0552 21.5551 97.8419 21.5716C97.6285 21.6044 97.4315 21.6044 97.2017 21.6044C96.6765 21.6044 96.2662 21.5551 95.9543 21.4567C95.6424 21.3582 95.3962 21.2105 95.2157 21.0299C95.0351 20.8329 94.9202 20.6031 94.8546 20.3241C94.7889 20.0451 94.7561 19.7004 94.7397 19.3393V14.0869H93.246V12.5933V12.6261Z" fill="black"/>
        <path d="M23.5864 9.22855H14.5753L11.8014 0.660645L9.01107 9.22855L0 9.21214L7.28764 14.5137L4.49733 23.0816L11.785 17.78L19.0726 23.0816L16.2987 14.5137L23.5864 9.22855Z" fill="#00B67A"/>
        <path d="M16.9228 16.451L16.2991 14.5142L11.8018 17.7805L16.9228 16.451Z" fill="#005128"/>
    </symbol>

    <symbol id="arrow" viewBox="0 0 18 19">
        <path fill-rule="evenodd" clip-rule="evenodd" d="M2.96582 9.65309C2.96582 9.24494 3.29669 8.91406 3.70485 8.91406H14.0512C14.4594 8.91406 14.7903 9.24494 14.7903 9.65309C14.7903 10.0612 14.4594 10.3921 14.0512 10.3921H3.70485C3.29669 10.3921 2.96582 10.0612 2.96582 9.65309Z"/>
        <path fill-rule="evenodd" clip-rule="evenodd" d="M8.35513 3.95669C8.64374 3.66808 9.11166 3.66808 9.40027 3.95669L14.5735 9.12988C14.8621 9.41849 14.8621 9.88642 14.5735 10.175L9.40027 15.3482C9.11166 15.6368 8.64374 15.6368 8.35513 15.3482C8.06652 15.0596 8.06652 14.5917 8.35513 14.3031L13.0057 9.65245L8.35513 5.00183C8.06652 4.71322 8.06652 4.2453 8.35513 3.95669Z"/>
    </symbol>

    <symbol id="arrow-full-link" viewBox="0 0 19 19" fill="none">
        <path d="M2 9.90186H17.8041" stroke="currentColor" stroke-width="2.25773" stroke-linecap="round" stroke-linejoin="round"/>
        <path d="M9.90234 2L17.8044 9.90206L9.90234 17.8041" stroke="currentColor" stroke-width="2.25773" stroke-linecap="round" stroke-linejoin="round"/>
    </symbol>

    <symbol id="star" viewBox="0 0 15 14" fill="none">
        <path d="M9.61557 13.7428C10.9711 14.4847 12.1631 13.5855 11.9039 12.0118L11.4384 9.18624L13.4102 7.18517C14.5068 6.07226 14.0538 4.61401 12.5361 4.38441L9.81121 3.97217L8.59861 1.4141C7.91938 -0.0188005 6.44458 -0.0342121 5.76406 1.40139L4.54543 3.97217L1.82051 4.38441C0.305024 4.61369 -0.151719 6.07069 0.946445 7.18517L2.91822 9.18624L2.45275 12.0118C2.19387 13.5833 3.38367 14.4858 4.74108 13.7428L7.17832 12.4087L9.61557 13.7428Z" fill="#6C5FBC"/>
    </symbol>

    <symbol id="save" viewBox="0 0 12 17" fill="currentColor">
        <path d="M9.29181 0.809742C6.9837 0.422794 4.61484 0.422794 2.30674 0.809742C1.46351 0.951107 0.791978 1.59846 0.622905 2.43782C-0.151652 6.28312 -0.193914 10.24 0.498336 14.101L0.780175 15.6729C0.86708 16.1576 1.45799 16.3514 1.815 16.0122L5.21695 12.7803C5.54328 12.4703 6.05527 12.4703 6.38159 12.7803L9.78354 16.0122C10.1406 16.3514 10.7315 16.1576 10.8184 15.6729L11.1002 14.101C11.7925 10.24 11.7502 6.28312 10.9756 2.43782C10.8066 1.59846 10.135 0.951107 9.29181 0.809742Z" fill="currentColor"/>
    </symbol>

    <symbol id="heart" viewBox="0 0 15 13" fill="none">
        <path fill-rule="evenodd" clip-rule="evenodd" d="M0.404297 4.48039C0.404297 2.26465 2.34816 0.558594 4.62984 0.558594C5.806 0.558594 6.84094 1.11008 7.58362 1.82366C8.3263 1.11008 9.36124 0.558594 10.5374 0.558594C12.8191 0.558594 14.7629 2.26465 14.7629 4.48039C14.7629 5.9982 14.1157 7.33296 13.2189 8.46121C12.3237 9.58753 11.1527 10.5434 10.0315 11.3202C9.6033 11.6168 9.17006 11.8905 8.77356 12.0925C8.40125 12.2821 7.97315 12.4558 7.58362 12.4558C7.1941 12.4558 6.76599 12.2821 6.39368 12.0925C5.99718 11.8905 5.56394 11.6169 5.1357 11.3202C4.01451 10.5434 2.84352 9.58753 1.94832 8.46122C1.05157 7.33296 0.404297 5.9982 0.404297 4.48039ZM4.62984 1.78934C2.92383 1.78934 1.63504 3.04395 1.63504 4.48039C1.63504 5.63195 2.12388 6.70409 2.9118 7.69543C3.70127 8.68872 4.76352 9.5651 5.83658 10.3085C6.24262 10.5898 6.62507 10.8291 6.95221 10.9957C7.30354 11.1747 7.50704 11.225 7.58362 11.225C7.6602 11.225 7.8637 11.1747 8.21503 10.9957C8.54217 10.8291 8.92462 10.5898 9.33067 10.3085C10.4037 9.5651 11.466 8.68872 12.2554 7.69543C13.0434 6.70409 13.5322 5.63195 13.5322 4.48039C13.5322 3.04395 12.2434 1.78934 10.5374 1.78934C9.55761 1.78934 8.64271 2.37469 8.07146 3.11765C7.95498 3.26915 7.77472 3.35793 7.58362 3.35793C7.39252 3.35793 7.21227 3.26915 7.09578 3.11765C6.52453 2.37469 5.60964 1.78934 4.62984 1.78934Z" fill="#323142"/>
    </symbol>

    <symbol id="plus" viewBox="0 0 11 11">
        <path d="M10.9169 6.44427H6.77025V10.6493H5.11548V6.44427H0.988281V4.94524H5.11548V0.720703H6.77025V4.94524H10.9169V6.44427Z" fill="black"/>
        <path fill-rule="evenodd" clip-rule="evenodd" d="M5.11548 10.6493H6.77025V6.44427H10.9169V4.94524H6.77025V0.720703H5.11548V4.94524H0.988281V6.44427H5.11548V10.6493Z" fill="white"/>
    </symbol>

    <symbol id="arrow-smart" viewBox="0 0 10 6" fill="none">
        <path d="M1.03516 1.28516L4.75662 5.00662L8.47808 1.28516" stroke="#1A202C" stroke-width="1.39555" stroke-linecap="round" stroke-linejoin="round"/>
    </symbol>

    <symbol id="wallet" viewBox="0 0 16 16" fill="none">
        <path d="M8.50927 2.25887L8.49067 2.30229L6.69196 6.47653H4.92427C4.5025 6.47653 4.09934 6.56336 3.7334 6.71842L4.81882 4.1258L4.84363 4.06378L4.88705 3.96454C4.89946 3.92733 4.91186 3.89011 4.93047 3.8591C5.74299 1.97976 6.66095 1.55179 8.50927 2.25887Z" stroke="#936DFF" stroke-width="0.930365" stroke-linecap="round" stroke-linejoin="round"/>
        <path d="M11.8518 6.60049C11.5727 6.51366 11.275 6.47644 10.9773 6.47644H6.69141L8.49011 2.30221L8.50872 2.25879C8.60176 2.2898 8.68859 2.33322 8.78163 2.37043L10.1524 2.94726C10.9153 3.26358 11.4487 3.59231 11.7712 3.98927C11.8332 4.0637 11.8828 4.13192 11.9263 4.21256C11.9821 4.29939 12.0255 4.38622 12.0503 4.47926C12.0751 4.53508 12.0937 4.5909 12.1061 4.64052C12.2736 5.16153 12.1744 5.80038 11.8518 6.60049Z" stroke="#936DFF" stroke-width="0.930365" stroke-linecap="round" stroke-linejoin="round"/>
        <path d="M14.0052 9.50335V10.7128C14.0052 10.8369 13.999 10.9609 13.9928 11.085C13.875 13.2496 12.6655 14.3412 10.3706 14.3412H5.53272C5.38386 14.3412 5.235 14.3288 5.09235 14.3102C3.11997 14.18 2.06556 13.1256 1.93531 11.1532C1.9167 11.0105 1.9043 10.8617 1.9043 10.7128V9.50335C1.9043 8.25666 2.66099 7.18364 3.74022 6.71846C4.11236 6.5634 4.50932 6.47656 4.93109 6.47656H10.9847C11.2886 6.47656 11.5863 6.51998 11.8592 6.60061C13.0935 6.97896 14.0052 8.13261 14.0052 9.50335Z" stroke="#936DFF" stroke-width="0.930365" stroke-linecap="round" stroke-linejoin="round"/>
        <path d="M4.81881 4.12598L3.73338 6.71859C2.65416 7.18378 1.89746 8.2568 1.89746 9.50349V7.68617C1.89746 5.92468 3.15035 4.45471 4.81881 4.12598Z" stroke="#936DFF" stroke-width="0.930365" stroke-linecap="round" stroke-linejoin="round"/>
        <path d="M14.0044 7.68615V9.50346C14.0044 8.13893 13.0989 6.97907 11.8584 6.60693C12.1809 5.80061 12.274 5.16796 12.1189 4.64076C12.1065 4.58493 12.0879 4.52911 12.0631 4.47949C13.2167 5.07493 14.0044 6.29681 14.0044 7.68615Z" stroke="#936DFF" stroke-width="0.930365" stroke-linecap="round" stroke-linejoin="round"/>
    </symbol>

    <symbol id="vocher" viewBox="0 0 16 16" fill="none">
        <path d="M11.2011 13.3811H4.99868C3.13795 13.3811 1.89746 12.4507 1.89746 10.2798V5.93813C1.89746 3.76728 3.13795 2.83691 4.99868 2.83691H11.2011C13.0618 2.83691 14.3023 3.76728 14.3023 5.93813V10.2798C14.3023 12.4507 13.0618 13.3811 11.2011 13.3811Z" stroke="#22C55E" stroke-width="0.930365" stroke-miterlimit="10" stroke-linecap="round" stroke-linejoin="round"/>
        <path d="M8.09999 9.96951C9.12764 9.96951 9.96072 9.13643 9.96072 8.10878C9.96072 7.08112 9.12764 6.24805 8.09999 6.24805C7.07234 6.24805 6.23926 7.08112 6.23926 8.10878C6.23926 9.13643 7.07234 9.96951 8.09999 9.96951Z" stroke="#22C55E" stroke-width="0.930365" stroke-miterlimit="10" stroke-linecap="round" stroke-linejoin="round"/>
        <path d="M4.06934 6.55762V9.65883" stroke="#22C55E" stroke-width="0.930365" stroke-miterlimit="10" stroke-linecap="round" stroke-linejoin="round"/>
        <path d="M12.1318 6.55762V9.65883" stroke="#22C55E" stroke-width="0.930365" stroke-miterlimit="10" stroke-linecap="round" stroke-linejoin="round"/>
    </symbol>

    <symbol id="review" viewBox="0 0 36 27" fill="none">
        <path fill-rule="evenodd" clip-rule="evenodd" d="M22.4909 26.7494C20.6407 23.1723 19.7156 19.2869 19.7156 15.093C19.7156 10.8375 20.8412 7.32211 23.0923 4.54678C25.3434 1.77146 28.8434 0.383789 33.5922 0.383789V6.21198C31.927 6.21198 30.709 6.58203 29.9381 7.32211C29.1671 8.0622 28.7817 9.4807 28.7817 11.5776V12.5027H35.535V26.7494H22.4909ZM3.34172 26.7496C1.49151 23.1726 0.566406 19.2871 0.566406 15.0933C0.566406 10.8378 1.69195 7.32235 3.94305 4.54702C6.19414 1.77169 9.69413 0.384022 14.443 0.384022V6.21221C12.7778 6.21221 11.5598 6.58226 10.7888 7.32235C10.0179 8.06244 9.63246 9.48093 9.63246 11.5778V12.503H16.3857V26.7496H3.34172Z" fill="#DADADA"/>
    </symbol>

    <symbol id="instagram" viewBox="0 0 17 16" fill="none">
        <path fill-rule="evenodd" clip-rule="evenodd" d="M8.12998 0C9.19048 0.0378781 10.2889 0.0378781 11.3494 0.0757512C12.2962 0.113624 13.1674 0.265125 14.0006 0.757496C15.0611 1.40137 15.705 2.34824 15.9322 3.56023C16.0459 4.27985 16.0837 5.03735 16.1216 5.75698C16.1595 7.34771 16.1216 8.93846 16.1216 10.5292C16.1216 11.3624 16.0837 12.1957 15.8186 12.9911C15.2884 14.5439 14.19 15.4908 12.5992 15.7938C11.8796 15.9453 11.1221 15.9453 10.4025 15.9832C8.81173 16.021 7.25885 15.9832 5.6681 15.9832C4.83485 15.9832 4.0016 15.9453 3.20623 15.6802C1.65335 15.1499 0.706474 14.0515 0.403473 12.4608C0.251976 11.7412 0.251976 10.9837 0.2141 10.2641C0.176223 8.67333 0.2141 7.08259 0.2141 5.49185C0.2141 4.65861 0.251976 3.82536 0.5171 3.02998C1.04735 1.47711 2.14573 0.530251 3.73647 0.227251C4.4561 0.0757562 5.2136 0.0757562 5.93323 0.0378781C6.65285 0 7.37247 0 8.12998 0ZM14.6822 7.84071C14.6444 7.84071 14.6822 7.84071 14.6822 7.84071C14.6444 7.19684 14.6444 6.59084 14.6444 5.94696C14.6444 5.34097 14.6065 4.73497 14.5307 4.12898C14.3792 2.76548 13.5839 1.85648 12.2582 1.59136C11.5765 1.43987 10.819 1.43987 10.1372 1.43987C8.77373 1.40199 7.4481 1.40199 6.0846 1.43987C5.40285 1.43987 4.7211 1.47773 4.07722 1.59136C2.94097 1.78074 2.1456 2.42461 1.80473 3.56085C1.6911 3.9396 1.65323 4.31835 1.61535 4.69709C1.57747 6.13634 1.57747 7.57558 1.57747 9.01482C1.57747 9.92382 1.61535 10.8707 1.6911 11.7797C1.80473 13.1432 2.63797 14.09 4.00148 14.3173C4.68322 14.4309 5.40285 14.4688 6.12248 14.4688C7.4481 14.5067 8.77373 14.4688 10.1372 14.4688C10.7432 14.4688 11.3492 14.4309 11.9552 14.3552C12.5234 14.3173 13.0536 14.1279 13.5081 13.7492C14.2656 13.1432 14.5307 12.3478 14.5686 11.4388C14.6444 10.3026 14.6444 9.09057 14.6822 7.84071Z" fill="#081420"/>
        <path fill-rule="evenodd" clip-rule="evenodd" d="M12.2201 7.99085C12.2201 10.2633 10.4021 12.0813 8.12957 12.0813C5.85707 12.0813 4.03906 10.2633 4.03906 7.95298C4.03906 5.71837 5.89494 3.90039 8.16744 3.90039C10.4021 3.90039 12.2201 5.71837 12.2201 7.99085ZM8.12999 10.6429C9.56923 10.6429 10.7812 9.43095 10.7812 7.99172C10.7812 6.55249 9.56923 5.34049 8.12999 5.34049C6.65286 5.34049 5.47873 6.55249 5.47873 7.99172C5.44086 9.43095 6.65286 10.6429 8.12999 10.6429Z" fill="#081420"/>
        <path d="M13.3188 3.71152C13.3188 4.24178 12.9022 4.69628 12.3719 4.69628C11.8417 4.69628 11.3872 4.24178 11.4251 3.71152C11.4251 3.18128 11.8417 2.76465 12.3719 2.76465C12.9022 2.76465 13.3188 3.18127 13.3188 3.71152Z" fill="#081420"/>
    </symbol>

    <symbol id="linkedin" viewBox="0 0 17 16" fill="none">
        <path fill-rule="evenodd" clip-rule="evenodd" d="M16.0799 9.32412V15.2107H12.6425V9.71083C12.6425 8.33586 12.1698 7.39057 10.9237 7.39057C9.97845 7.39057 9.41986 8.03509 9.16205 8.63664C9.07612 8.85147 9.03315 9.15225 9.03315 9.45302V15.2107H5.5957C5.5957 15.2107 5.63867 5.88669 5.5957 4.9414H9.03315V6.40231C9.03315 6.40231 9.03315 6.44527 8.99018 6.44527H9.03315V6.40231C9.5058 5.71482 10.2792 4.68359 12.1269 4.68359C14.3612 4.68359 16.0799 6.18747 16.0799 9.32412ZM2.07224 0C0.912098 0 0.138672 0.773422 0.138672 1.76168C0.138672 2.74994 0.869131 3.52337 2.02927 3.52337H2.07224C3.27535 3.52337 4.00581 2.74995 4.00581 1.76168C3.96284 0.773422 3.23238 0 2.07224 0ZM0.310547 15.2107H3.70504V4.94141H0.310547V15.2107Z" fill="#081420"/>
    </symbol>

    <symbol id="facebook" viewBox="0 0 8 16" fill="none">
        <path fill-rule="evenodd" clip-rule="evenodd" d="M7.19108 7.97058H4.96402V15.9412H1.64294V9.27463V7.97058H0.0800781V5.15744H1.64294V3.32108C1.64294 2.03172 2.26809 0 4.96402 0H7.42551V2.735H5.6673C5.3938 2.735 4.96402 2.89129 4.96402 3.51643V5.15744H7.46459L7.19108 7.97058Z" fill="#081420"/>
    </symbol>

    <symbol id="twitter" viewBox="0 0 17 14" fill="none">
        <path fill-rule="evenodd" clip-rule="evenodd" d="M16.406 1.85816C15.8059 2.12072 15.2057 2.30826 14.5306 2.38328C15.2057 1.97068 15.7309 1.33304 15.9559 0.582871C15.3183 0.957955 14.6056 1.22051 13.8929 1.37055C13.2928 0.732902 12.4301 0.320312 11.4924 0.320312C9.69198 0.320312 8.22913 1.78314 8.22913 3.58354C8.22913 3.84611 8.26664 4.10866 8.30415 4.33372C5.56602 4.18368 3.16547 2.90839 1.55259 0.920449C1.25252 1.40806 1.10249 1.97068 1.10249 2.57082C1.10249 3.69607 1.66512 4.7088 2.56533 5.30893C2.04021 5.30893 1.51509 5.1589 1.06498 4.89634V4.93384C1.06498 6.5092 2.19024 7.8595 3.69059 8.15956C3.42802 8.23458 3.12796 8.27209 2.82789 8.27209C2.60284 8.27209 2.41529 8.23458 2.22775 8.19708C2.64034 9.50986 3.84063 10.4476 5.30346 10.4851C4.1782 11.3478 2.79038 11.8729 1.25252 11.8729C0.989965 11.8729 0.727406 11.8729 0.464844 11.8354C1.92768 12.7731 3.61557 13.2982 5.491 13.2982C11.5299 13.2982 14.7932 8.3096 14.7932 3.99614C14.7932 3.84611 14.7932 3.69607 14.7932 3.58354C15.4308 3.09594 15.9934 2.4958 16.406 1.85816Z" fill="#6C5FBC"/>
    </symbol>

    <symbol id="close" width="32" height="32" viewBox="0 0 46 46" fill="none">
        <line x1="11.6202" y1="11.0072" x2="34.2476" y2="33.6346" stroke="#6C5FBC" stroke-width="3"/>
        <line x1="11.0067" y1="33.6347" x2="33.6341" y2="11.0072" stroke="#6C5FBC" stroke-width="3"/>
    </symbol>


</svg>
